# xmcd CD database file
#
# Track frame offsets:
#	150
#	13947
#	27844
#	50808
#	62920
#	79997
#	96643
#	114968
#	131185
#	145852
#	162578
#	178130
#	196014
#	208038
#	219772
#	231557
#	244588
#	262058
#	277454
#	289768
#
# Disc length: 4075 seconds
#
# Revision: 0
# Processed by: cddbd v1.5.1PL0 Copyright (c) Steve Scherf et al.
# Submitted via: CDex 1.51
#
DISCID=440fe914
DTITLE=Mary Duff - The Ultimate Collection [CD2)
DYEAR=2005
DGENRE=Country
TTITLE0=Hopelessly Devoted To You
TTITLE1=True Love Ways
TTITLE2=The Power Of Love
TTITLE3=Wounded Hearts
TTITLE4=Secret Love (with Daniel O'Donnel)
TTITLE5=Amazing Grace
TTITLE6=Cliffs Of Doneen
TTITLE7=Isle Of Hope
TTITLE8=More Than I Can Say
TTITLE9=Beautiful Meath
TTITLE10=Danny The Pipes Are Still Calling
TTITLE11=Maggie
TTITLE12=The End Of The World
TTITLE13=Heartaches By The Numbers
TTITLE14=Everybody's Somebody's Fool
TTITLE15=Just Lovin' You
TTITLE16=Timeless (with Daniel O' Donnel)
TTITLE17=Can I Sleep In Your Arms
TTITLE18=Lillie Marlene
TTITLE19=We'll Meet Again
EXTD=YEAR: 2005
EXTT0=
EXTT1=
EXTT2=
EXTT3=
EXTT4=
EXTT5=
EXTT6=
EXTT7=
EXTT8=
EXTT9=
EXTT10=
EXTT11=
EXTT12=
EXTT13=
EXTT14=
EXTT15=
EXTT16=
EXTT17=
EXTT18=
EXTT19=
PLAYORDER=
